<?xml version="1.0" encoding="UTF-8" standalone="no"?><svg xmlns="http://www.w3.org/2000/svg" xmlns:xlink="http://www.w3.org/1999/xlink" clip-rule="evenodd" stroke-miterlimit="4.00" viewBox="0 0 1920 1080"><desc>SVG generated by Keynote</desc><defs></defs><g transform="matrix(1.00, 0.00, -0.00, -1.00, 0.0, 1080.0)"><path d="M 0.0 1080.0 L 1920.0 1080.0 L 1920.0 0.0 L 0.0 0.0 Z M 0.0 1080.0 " fill="#FEFFFF"></path><g opacity="0.31"><g><clipPath id="clip-0"><path d="M 133.0 293.0 L 1920.0 293.0 L 1920.0 653.0 L 133.0 653.0 Z M 133.0 293.0 "></path></clipPath><g clip-path="url(#clip-0)"><path d="M 134.2 651.2 L 1932.8 651.2 L 1932.8 294.6 L 134.2 294.6 Z M 134.2 651.2 " fill="#471362"></path></g></g><g><clipPath id="clip-1"><path d="M 133.0 293.0 L 1920.0 293.0 L 1920.0 651.2 L 133.0 651.2 Z M 133.0 293.0 "></path></clipPath><g clip-path="url(#clip-1)"></g></g></g><text xml:space="preserve" font-family="Avenir-Medium" font-size="95.0" fill="#FEFFFF" transform="matrix(1.00, 0.00, -0.00, -1.00, 183.0, 516.0)">D</text><text xml:space="preserve" font-family="Avenir-Medium" font-size="95.0" fill="#FEFFFF" transform="matrix(1.00, 0.00, -0.00, -1.00, 253.4, 516.0)">i</text><text xml:space="preserve" font-family="Avenir-Medium" font-size="95.0" fill="#FEFFFF" transform="matrix(1.00, 0.00, -0.00, -1.00, 276.2, 516.0)">f</text><text xml:space="preserve" font-family="Avenir-Medium" font-size="95.0" fill="#FEFFFF" transform="matrix(1.00, 0.00, -0.00, -1.00, 306.1, 516.0)">f</text><text xml:space="preserve" font-family="Avenir-Medium" font-size="95.0" fill="#FEFFFF" transform="matrix(1.00, 0.00, -0.00, -1.00, 337.8, 516.0)">e</text><text xml:space="preserve" font-family="Avenir-Medium" font-size="95.0" fill="#FEFFFF" transform="matrix(1.00, 0.00, -0.00, -1.00, 390.6, 516.0)">r</text><text xml:space="preserve" font-family="Avenir-Medium" font-size="95.0" fill="#FEFFFF" transform="matrix(1.00, 0.00, -0.00, -1.00, 424.0, 516.0)">e</text><text xml:space="preserve" font-family="Avenir-Medium" font-size="95.0" fill="#FEFFFF" transform="matrix(1.00, 0.00, -0.00, -1.00, 476.8, 516.0)">n</text><text xml:space="preserve" font-family="Avenir-Medium" font-size="95.0" fill="#FEFFFF" transform="matrix(1.00, 0.00, -0.00, -1.00, 529.7, 516.0)">t</text><text xml:space="preserve" font-family="Avenir-Medium" font-size="95.0" fill="#FEFFFF" transform="matrix(1.00, 0.00, -0.00, -1.00, 564.8, 516.0)">i</text><text xml:space="preserve" font-family="Avenir-Medium" font-size="95.0" fill="#FEFFFF" transform="matrix(1.00, 0.00, -0.00, -1.00, 587.6, 516.0)">a</text><text xml:space="preserve" font-family="Avenir-Medium" font-size="95.0" fill="#FEFFFF" transform="matrix(1.00, 0.00, -0.00, -1.00, 636.9, 516.0)">l</text><text xml:space="preserve" font-family="Avenir-Medium" font-size="95.0" fill="#FEFFFF" transform="matrix(1.00, 0.00, -0.00, -1.00, 659.7, 516.0)"> </text><text xml:space="preserve" font-family="Avenir-Medium" font-size="95.0" fill="#FEFFFF" transform="matrix(1.00, 0.00, -0.00, -1.00, 686.1, 516.0)">a</text><text xml:space="preserve" font-family="Avenir-Medium" font-size="95.0" fill="#FEFFFF" transform="matrix(1.00, 0.00, -0.00, -1.00, 735.4, 516.0)">n</text><text xml:space="preserve" font-family="Avenir-Medium" font-size="95.0" fill="#FEFFFF" transform="matrix(1.00, 0.00, -0.00, -1.00, 788.2, 516.0)">a</text><text xml:space="preserve" font-family="Avenir-Medium" font-size="95.0" fill="#FEFFFF" transform="matrix(1.00, 0.00, -0.00, -1.00, 837.5, 516.0)">l</text><text xml:space="preserve" font-family="Avenir-Medium" font-size="95.0" fill="#FEFFFF" transform="matrix(1.00, 0.00, -0.00, -1.00, 860.3, 516.0)">y</text><text xml:space="preserve" font-family="Avenir-Medium" font-size="95.0" fill="#FEFFFF" transform="matrix(1.00, 0.00, -0.00, -1.00, 907.8, 516.0)">s</text><text xml:space="preserve" font-family="Avenir-Medium" font-size="95.0" fill="#FEFFFF" transform="matrix(1.00, 0.00, -0.00, -1.00, 950.0, 516.0)">i</text><text xml:space="preserve" font-family="Avenir-Medium" font-size="95.0" fill="#FEFFFF" transform="matrix(1.00, 0.00, -0.00, -1.00, 972.8, 516.0)">s</text><text xml:space="preserve" font-family="Avenir-Medium" font-size="95.0" fill="#FEFFFF" transform="matrix(1.00, 0.00, -0.00, -1.00, 1015.0, 516.0)"> </text><text xml:space="preserve" font-family="Avenir-Medium" font-size="95.0" fill="#FEFFFF" transform="matrix(1.00, 0.00, -0.00, -1.00, 1041.4, 516.0)">o</text><text xml:space="preserve" font-family="Avenir-Medium" font-size="95.0" fill="#FEFFFF" transform="matrix(1.00, 0.00, -0.00, -1.00, 1097.8, 516.0)">f</text><text xml:space="preserve" font-family="Avenir-Medium" font-size="95.0" fill="#FEFFFF" transform="matrix(1.00, 0.00, -0.00, -1.00, 1129.5, 516.0)"> </text><text xml:space="preserve" font-family="Avenir-Medium" font-size="95.0" fill="#FEFFFF" transform="matrix(1.00, 0.00, -0.00, -1.00, 1155.9, 516.0)">p</text><text xml:space="preserve" font-family="Avenir-Medium" font-size="95.0" fill="#FEFFFF" transform="matrix(1.00, 0.00, -0.00, -1.00, 1213.9, 516.0)">r</text><text xml:space="preserve" font-family="Avenir-Medium" font-size="95.0" fill="#FEFFFF" transform="matrix(1.00, 0.00, -0.00, -1.00, 1247.4, 516.0)">o</text><text xml:space="preserve" font-family="Avenir-Medium" font-size="95.0" fill="#FEFFFF" transform="matrix(1.00, 0.00, -0.00, -1.00, 1303.8, 516.0)">t</text><text xml:space="preserve" font-family="Avenir-Medium" font-size="95.0" fill="#FEFFFF" transform="matrix(1.00, 0.00, -0.00, -1.00, 1339.0, 516.0)">e</text><text xml:space="preserve" font-family="Avenir-Medium" font-size="95.0" fill="#FEFFFF" transform="matrix(1.00, 0.00, -0.00, -1.00, 1391.8, 516.0)">o</text><text xml:space="preserve" font-family="Avenir-Medium" font-size="95.0" fill="#FEFFFF" transform="matrix(1.00, 0.00, -0.00, -1.00, 1448.2, 516.0)">m</text><text xml:space="preserve" font-family="Avenir-Medium" font-size="95.0" fill="#FEFFFF" transform="matrix(1.00, 0.00, -0.00, -1.00, 1529.1, 516.0)">i</text><text xml:space="preserve" font-family="Avenir-Medium" font-size="95.0" fill="#FEFFFF" transform="matrix(1.00, 0.00, -0.00, -1.00, 1551.9, 516.0)">c</text><text xml:space="preserve" font-family="Avenir-Medium" font-size="95.0" fill="#FEFFFF" transform="matrix(1.00, 0.00, -0.00, -1.00, 1597.7, 516.0)">s</text><text xml:space="preserve" font-family="Avenir-Medium" font-size="95.0" fill="#FEFFFF" transform="matrix(1.00, 0.00, -0.00, -1.00, 1639.9, 516.0)"> </text><text xml:space="preserve" font-family="Avenir-Medium" font-size="95.0" fill="#FEFFFF" transform="matrix(1.00, 0.00, -0.00, -1.00, 1666.3, 516.0)">d</text><text xml:space="preserve" font-family="Avenir-Medium" font-size="95.0" fill="#FEFFFF" transform="matrix(1.00, 0.00, -0.00, -1.00, 1724.4, 516.0)">a</text><text xml:space="preserve" font-family="Avenir-Medium" font-size="95.0" fill="#FEFFFF" transform="matrix(1.00, 0.00, -0.00, -1.00, 1773.7, 516.0)">t</text><text xml:space="preserve" font-family="Avenir-Medium" font-size="95.0" fill="#FEFFFF" transform="matrix(1.00, 0.00, -0.00, -1.00, 1808.8, 516.0)">a</text><text xml:space="preserve" font-family="Avenir-Medium" font-size="95.0" fill="#FEFFFF" transform="matrix(1.00, 0.00, -0.00, -1.00, 1858.1, 516.0)"> </text><text xml:space="preserve" font-family="Avenir-Medium" font-size="95.0" fill="#FEFFFF" transform="matrix(1.00, 0.00, -0.00, -1.00, 372.0, 386.0)">u</text><text xml:space="preserve" font-family="Avenir-Medium" font-size="95.0" fill="#FEFFFF" transform="matrix(1.00, 0.00, -0.00, -1.00, 424.8, 386.0)">s</text><text xml:space="preserve" font-family="Avenir-Medium" font-size="95.0" fill="#FEFFFF" transform="matrix(1.00, 0.00, -0.00, -1.00, 467.0, 386.0)">i</text><text xml:space="preserve" font-family="Avenir-Medium" font-size="95.0" fill="#FEFFFF" transform="matrix(1.00, 0.00, -0.00, -1.00, 489.8, 386.0)">n</text><text xml:space="preserve" font-family="Avenir-Medium" font-size="95.0" fill="#FEFFFF" transform="matrix(1.00, 0.00, -0.00, -1.00, 542.6, 386.0)">g</text><text xml:space="preserve" font-family="Avenir-Medium" font-size="95.0" fill="#FEFFFF" transform="matrix(1.00, 0.00, -0.00, -1.00, 600.7, 386.0)"> </text><text xml:space="preserve" font-family="Avenir-Medium" font-size="95.0" fill="#FEFFFF" transform="matrix(1.00, 0.00, -0.00, -1.00, 627.1, 386.0)">a</text><text xml:space="preserve" font-family="Avenir-Medium" font-size="95.0" fill="#FEFFFF" transform="matrix(1.00, 0.00, -0.00, -1.00, 676.4, 386.0)"> </text><text xml:space="preserve" font-family="Avenir-Medium" font-size="95.0" fill="#FEFFFF" transform="matrix(1.00, 0.00, -0.00, -1.00, 702.8, 386.0)">w</text><text xml:space="preserve" font-family="Avenir-Medium" font-size="95.0" fill="#FEFFFF" transform="matrix(1.00, 0.00, -0.00, -1.00, 774.9, 386.0)">e</text><text xml:space="preserve" font-family="Avenir-Medium" font-size="95.0" fill="#FEFFFF" transform="matrix(1.00, 0.00, -0.00, -1.00, 827.7, 386.0)">b</text><text xml:space="preserve" font-family="Avenir-Medium" font-size="95.0" fill="#FEFFFF" transform="matrix(1.00, 0.00, -0.00, -1.00, 885.8, 386.0)"> </text><text xml:space="preserve" font-family="Avenir-Medium" font-size="95.0" fill="#FEFFFF" transform="matrix(1.00, 0.00, -0.00, -1.00, 912.2, 386.0)">a</text><text xml:space="preserve" font-family="Avenir-Medium" font-size="95.0" fill="#FEFFFF" transform="matrix(1.00, 0.00, -0.00, -1.00, 961.5, 386.0)">p</text><text xml:space="preserve" font-family="Avenir-Medium" font-size="95.0" fill="#FEFFFF" transform="matrix(1.00, 0.00, -0.00, -1.00, 1019.5, 386.0)">p</text><text xml:space="preserve" font-family="Avenir-Medium" font-size="95.0" fill="#FEFFFF" transform="matrix(1.00, 0.00, -0.00, -1.00, 1077.6, 386.0)">l</text><text xml:space="preserve" font-family="Avenir-Medium" font-size="95.0" fill="#FEFFFF" transform="matrix(1.00, 0.00, -0.00, -1.00, 1100.4, 386.0)">i</text><text xml:space="preserve" font-family="Avenir-Medium" font-size="95.0" fill="#FEFFFF" transform="matrix(1.00, 0.00, -0.00, -1.00, 1123.2, 386.0)">c</text><text xml:space="preserve" font-family="Avenir-Medium" font-size="95.0" fill="#FEFFFF" transform="matrix(1.00, 0.00, -0.00, -1.00, 1169.0, 386.0)">a</text><text xml:space="preserve" font-family="Avenir-Medium" font-size="95.0" fill="#FEFFFF" transform="matrix(1.00, 0.00, -0.00, -1.00, 1218.3, 386.0)">t</text><text xml:space="preserve" font-family="Avenir-Medium" font-size="95.0" fill="#FEFFFF" transform="matrix(1.00, 0.00, -0.00, -1.00, 1253.4, 386.0)">i</text><text xml:space="preserve" font-family="Avenir-Medium" font-size="95.0" fill="#FEFFFF" transform="matrix(1.00, 0.00, -0.00, -1.00, 1276.2, 386.0)">o</text><text xml:space="preserve" font-family="Avenir-Medium" font-size="95.0" fill="#FEFFFF" transform="matrix(1.00, 0.00, -0.00, -1.00, 1332.6, 386.0)">n</text><text xml:space="preserve" font-family="Avenir-Medium" font-size="95.0" fill="#FEFFFF" transform="matrix(1.00, 0.00, -0.00, -1.00, 1385.5, 386.0)"> </text><text xml:space="preserve" font-family="Avenir-Medium" font-size="95.0" fill="#FEFFFF" transform="matrix(1.00, 0.00, -0.00, -1.00, 1411.9, 386.0)">P</text><text xml:space="preserve" font-family="Avenir-Medium" font-size="95.0" fill="#FEFFFF" transform="matrix(1.00, 0.00, -0.00, -1.00, 1468.2, 386.0)">e</text><text xml:space="preserve" font-family="Avenir-Medium" font-size="95.0" fill="#FEFFFF" transform="matrix(1.00, 0.00, -0.00, -1.00, 1521.0, 386.0)">p</text><text xml:space="preserve" font-family="Avenir-Medium" font-size="95.0" fill="#FEFFFF" transform="matrix(1.00, 0.00, -0.00, -1.00, 1579.1, 386.0)">r</text><text xml:space="preserve" font-family="Avenir-Medium" font-size="95.0" fill="#FEFFFF" transform="matrix(1.00, 0.00, -0.00, -1.00, 1612.5, 386.0)">o</text></g></svg>